<svg xmlns="http://www.w3.org/2000/svg" fill="none" viewBox="0 0 680 48">
  <g clip-path="url(#clip0_4762_260775)">
    <path fill="#BCE0F3" d="M0 8a8 8 0 0 1 8-8h664a8 8 0 0 1 8 8v32a8 8 0 0 1-8 8H8a8 8 0 0 1-8-8V8z"/>
    <path fill="#EDF9FF" d="M0 0h680C637.3 54.6 123 47.6 0 47.8V0z"/>
    <path fill="#114C6B" d="M583.2 18.9c.7-1.1 7-5.6 7-5.6s-2.1-1.4-.7-2.3c1.5-.9 7.2-.9 7.2-.9s25.5-.3 27.9 0a51.6 51.6 0 0 1 18.1 8.4c4 .1 8 .6 11.9 1.3 5.5 1 7.2 2.4 7.4 3 .3.7 0 3.5 0 3.5a5 5 0 0 1 1 2c.3.8-.3 6-1 6.3a8 8 0 0 1-2.7 1c-1.2.2-4.4 0-4.4 0s.9-8.6-7-8.5c-7.7 0-4.3 8.6-4.3 8.6l-39-.3s0-8.4-7.4-8.3c-7.5 0-6.8 7.7-6.8 7.7s-2.9-.8-3.6-.7c-.7 0-1.6.3-2.2 0-.6-.2-2.5-3.5-2.5-3.5s-.2-3.2 0-3.5a1 1 0 0 1 .6-.5l.8-3s-1-3.6-.3-4.7z"/>
    <path fill="#EDF9FF" d="M597.8 14.7l9 4.6 32.2 1.5c-2-2-4.3-3.8-6.7-5.3a22 22 0 0 0-7.7-3c-1-.1-21.1-.6-23.4 0a6.7 6.7 0 0 0-3.4 2.2z" opacity=".8"/>
    <path fill="#fff" d="M597.5 15.6l8.8 4.8 11 .5.3 11.5h1.9l-.4-11.5 20.4 1c.3.4.5.9.6 1.4 0 .8-.7 8.3-1 9-.4.5-2.8.3-2.8.3l-30.7-.3a7 7 0 0 0-2.2-4.7 8.1 8.1 0 0 0-5-2s-.8-4.8-.9-6.2v-3.8z" opacity=".1"/>
    <path fill="#F73131" d="M583.7 19.5c0-.8 3.2-2.9 3.2-2.9l4.2-2.8h.4s-4.4 3.8-4.6 4.4c-.3.6.7 1 .7 1h4.4c0 .3 0 .6-.6 1.2-.6.7-1.2 1.4-1.9 1.6-.7.2-4.4.3-5.2 0-.8-.3-.6-1.8-.6-2.5z"/>
    <path fill="#0A2E40" d="M648 41c4.2 0 7.6-3.3 7.6-7.4 0-4-3.4-7.3-7.5-7.3a7.4 7.4 0 0 0-7.5 7.3c0 4.1 3.3 7.4 7.5 7.4z"/>
    <path fill="#E8F5FB" d="M648.2 39c3 0 5.5-2.4 5.5-5.4 0-3-2.5-5.3-5.5-5.3s-5.5 2.4-5.5 5.3c0 3 2.5 5.4 5.5 5.4z"/>
    <path fill="#0A2E40" d="M648.7 28.3h-1v5.3h1v-5.3z"/>
    <path fill="#0A2E40" d="M653.7 32.6l-.3-1-5.2 1.6.3 1 5.2-1.6z"/>
    <path fill="#0A2E40" d="M651 38.4l1-.6-3.3-4.4-.8.6 3.2 4.4z"/>
    <path fill="#0A2E40" d="M644.2 38l.9.6 3.2-4.4-.9-.6-3.2 4.4z"/>
    <path fill="#0A2E40" d="M643 31.4l-.2 1 5.2 1.7.3-1-5.2-1.7z"/>
    <path fill="#E8F5FB" d="M648.2 38.2c2.6 0 4.7-2 4.7-4.6 0-2.5-2.1-4.6-4.7-4.6a4.6 4.6 0 1 0 0 9.2z" opacity=".2"/>
    <path fill="#0A2E40" d="M648.2 35.4c1 0 1.8-.8 1.8-1.8s-.8-1.8-1.8-1.8-1.8.8-1.8 1.8.8 1.8 1.8 1.8z"/>
    <path fill="#0A2E40" d="M648.2 35.7c1 0 2-1 2-2a2 2 0 0 0-2-2 2 2 0 0 0-2 1.9c0 1.2.8 2 2 2zM597.6 41c4 0 7.4-3.3 7.4-7.4 0-4-3.3-7.3-7.4-7.3a7.4 7.4 0 0 0-7.5 7.3c0 4.1 3.3 7.4 7.5 7.4z"/>
    <path fill="#E8F5FB" d="M597.7 39c3 0 5.4-2.4 5.4-5.4 0-3-2.4-5.3-5.4-5.3-3 0-5.5 2.4-5.5 5.3 0 3 2.5 5.4 5.5 5.4z"/>
    <path fill="#0A2E40" d="M598.2 28.3h-1v5.3h1v-5.3z"/>
    <path fill="#0A2E40" d="M603.2 32.6l-.3-1-5.2 1.6.3 1 5.2-1.6z"/>
    <path fill="#0A2E40" d="M600.6 38.4l.8-.6-3.2-4.4-.8.6 3.2 4.4z"/>
    <path fill="#0A2E40" d="M593.7 38l.8.6 3.3-4.4-.9-.6-3.2 4.4z"/>
    <path fill="#0A2E40" d="M592.6 31.4l-.4 1 5.2 1.7.4-1-5.2-1.7z"/>
    <path fill="#E8F5FB" d="M597.7 38.2c2.6 0 4.7-2 4.7-4.6 0-2.5-2.1-4.6-4.7-4.6a4.6 4.6 0 1 0 0 9.2z" opacity=".2"/>
    <path fill="#0A2E40" d="M597.7 35.4c1 0 1.8-.8 1.8-1.8s-.8-1.8-1.8-1.8-1.8.8-1.8 1.8.8 1.8 1.8 1.8z"/>
    <path fill="#DEDEDE" d="M654.6 22.3a6.3 6.3 0 0 0 5.7 2.7s1-1.7.6-2c-.3-.2-6.3-.7-6.3-.7z"/>
    <path fill="#114C6B" d="M606 12.2h.7v7.2l-.6-.4v-6.8zm11 0h.6V20l-1-.1.4-7.7zm1.3 0h-.6V20h1.4l-.8-7.7z"/>
    <path fill="#E9F6FB" d="M635.6 20.6s-.5-.2-.5-.4c0-.5 0-1 .2-1.6a1 1 0 0 1 1-.6 4 4 0 0 1 2.1.6 1.9 1.9 0 0 1 .8 1.5.6.6 0 0 1-.4.7l-3.2-.2z"/>
    <path fill="#0A2E40" d="M602.2 22.7v.3c.4.2.8.4 1.3.4.4 0 1-.2 1.3-.4v-.2h-2.6zm18.3 0v.3c.4.2.8.4 1.3.4s1-.2 1.4-.4v-.2h-2.7z"/>
    <path fill="#E9F6FB" d="M620 23.2v-.5c0-.2 1-.3 1.8-.3s1.5 0 1.7.3a.4.4 0 0 1 0 .5c-.5-.2-1-.2-1.7-.3-.6 0-1.2.1-1.7.3zm-18.2 0s-.2-.3 0-.5.8-.3 1.6-.3c.6 0 1.2 0 1.8.3.3.2 0 .5 0 .5l-1.8-.3-1.6.3z"/>
  </g>
  <defs id="defs102">
    <filter id="filter0_d_4762_260775" width="69" height="44" x="4" y="2" color-interpolation-filters="sRGB" filterUnits="userSpaceOnUse">
      <feFlood id="feFlood82" flood-opacity="0" result="BackgroundImageFix"/>
      <feColorMatrix id="feColorMatrix84" in="SourceAlpha" result="hardAlpha" type="matrix" values="0 0 0 0 0 0 0 0 0 0 0 0 0 0 0 0 0 0 127 0"/>
      <feOffset id="feOffset86"/>
      <feGaussianBlur id="feGaussianBlur88" stdDeviation="6"/>
      <feComposite id="feComposite90" in2="hardAlpha" operator="out"/>
      <feColorMatrix id="feColorMatrix92" type="matrix" values="0 0 0 0 0.156863 0 0 0 0 0.694118 0 0 0 0 0.427451 0 0 0 0.25 0"/>
      <feBlend id="feBlend94" in2="BackgroundImageFix" mode="normal" result="effect1_dropShadow_4762_260775"/>
      <feBlend id="feBlend96" in="SourceGraphic" in2="effect1_dropShadow_4762_260775" mode="normal" result="shape"/>
    </filter>
    <clipPath id="clip0_4762_260775">
      <path id="rect99" fill="#fff" d="M0 8a8 8 0 0 1 8-8h664a8 8 0 0 1 8 8v32a8 8 0 0 1-8 8H8a8 8 0 0 1-8-8V8z"/>
    </clipPath>
  </defs>
</svg>
